<?xml version="1.0" encoding="utf-8"?>
<!DOCTYPE svg PUBLIC "-//W3C//DTD SVG 1.1//EN" "http://www.w3.org/Graphics/SVG/1.1/DTD/svg11.dtd">
<!-- exported from Silhouette Studio® Business Edition V4.5.180ssbe -->
<svg version="1.1" xmlns="http://www.w3.org/2000/svg" xmlns:xlink="http://www.w3.org/1999/xlink" width="279.4mm" height="279.4mm" viewBox="0 0 279.4 279.4">
<defs>
<path id="path_9025c09204a620d5784d303f4bc75134" d="M 107.219 95.06429 C 107.256 95.07948 107.2862 95.10106 107.3116 95.12672 C 107.3625 95.17796 107.3974 95.24832 107.3974 95.35437 L 107.3974 169.9187 C 107.3974 170.3646 107.0717 171.4952 105.8316 171.4952 L 63.62315 171.4952 C 62.79642 171.4952 62.05736 170.8501 62.05736 169.9187 L 62.05736 9.071304 C 62.05736 8.189484 62.7471 7.494827 63.62303 7.494827 L 105.8316 7.494858 C 106.5797 7.494858 107.3974 8.06073 107.3974 9.071426 L 107.3974 83.63597 C 107.3974 83.73538 107.367 83.81065 107.3116 83.86607 C 107.243 83.93475 107.1639 83.94981 107.0873 83.94981 L 99.99268 83.94981 C 98.61475 83.94981 97.36102 85.01501 97.28618 86.67456 C 97.28392 86.72469 97.28392 92.26543 97.28618 92.31552 C 97.39493 94.72789 99.55037 95.04031 99.99268 95.04031 L 107.0855 95.04031 C 107.1382 95.04031 107.1819 95.04909 107.219 95.06429 Z M 94.45567 75.3002 L 84.60553 75.3002 L 84.60553 103.8995 L 94.4557 103.8995 L 94.45567 75.3002 Z M 82.98642 89.79158 L 66.03082 89.79156 C 65.96376 89.79156 65.90733 89.8484 65.90733 89.91589 L 65.90733 93.69859 C 65.90733 96.14935 67.88304 98.1384 70.31383 98.1384 L 78.69987 98.13847 C 81.13419 98.13847 83.10635 96.14941 83.10635 93.69865 L 83.10635 89.91594 C 83.10635 89.84845 83.05345 89.79158 82.98642 89.79158 Z M 66.01669 88.05478 L 82.9899 88.05482 C 83.05693 88.05482 83.10983 87.998 83.10983 87.93051 L 83.10983 85.26303 C 83.10983 82.81227 81.13768 80.82324 78.70335 80.82324 L 70.31734 80.82321 C 67.88655 80.82321 65.91084 82.81224 65.91084 85.263 L 65.91084 87.94109 C 65.91084 88.01213 65.96375 88.05121 66.01669 88.05121 L 66.01669 88.05478 Z" fill-rule="evenodd" fill="#C6B463" fill-opacity="1" stroke="#000000" stroke-opacity="1" stroke-width="0.3527778" stroke-linecap="butt" stroke-linejoin="miter"/>
<path id="path_3e2ee436337627d0effe29c65c1f1909" d="M 15.81831 3.119568 L 105.5796 3.119522 L 105.5796 5.952545 L 63.26851 5.950668 L 63.01242 5.990372 C 61.23573 6.359176 59.82719 7.95607 59.82719 9.904266 L 59.82726 170.8345 C 59.82726 173.5785 61.94997 174.5003 63.14859 174.7495 L 63.25067 174.7677 L 105.5796 174.7677 L 105.5795 177.6192 L 15.81826 177.6193 C 15.25026 177.6193 14.79165 177.1567 14.79165 176.5838 L 14.79165 175.6267 C 14.79165 175.1356 14.39654 174.7371 13.90968 174.7371 L 3.301186 174.737 C 3.050697 174.737 2.849625 174.5342 2.849625 174.2816 L 2.849625 167.9849 L 12.8181 167.9849 L 12.92027 167.9689 C 14.46288 167.6454 15.63698 166.2496 15.63698 164.6182 L 15.637 145.2056 C 15.637 144.0001 14.74128 142.0479 12.66917 141.8086 L 12.65369 141.8077 L 2.849648 141.8075 L 2.849648 90.36946 L 2.849663 6.457336 C 2.849663 6.204697 3.050735 6.001846 3.301224 6.001846 L 13.90972 6.001877 C 14.39658 6.001816 14.7917 5.603317 14.7917 5.112274 L 14.7917 4.155075 C 14.78817 3.585709 15.25031 3.119568 15.81831 3.119568 Z M 10.08891 94.17685 C 10.08891 93.38684 9.453865 92.7464 8.670662 92.7464 L 5.428513 92.7464 C 4.645317 92.7464 4.010292 93.38683 4.010292 94.17683 L 4.0103 126.5183 C 4.0103 127.3083 4.645309 127.9488 5.428505 127.9488 L 8.670662 127.9488 C 9.453865 127.9488 10.08893 127.3082 10.08893 126.5183 L 10.08891 94.17685 Z M 4.340286 136.8943 C 4.340286 138.2456 5.439041 139.3443 6.790283 139.3443 C 8.145058 139.3443 9.24028 138.2455 9.24028 136.8943 C 9.24028 135.5431 8.14505 134.4443 6.790283 134.4443 C 5.435493 134.4443 4.340287 135.5431 4.340286 136.8943 Z M 9.309235 18.64101 C 9.309235 17.48807 8.381401 16.55223 7.238342 16.55223 L 6.878494 16.55223 C 5.735443 16.55223 4.807587 17.48807 4.807587 18.64099 L 4.807587 23.39485 C 4.807586 24.54776 5.73542 25.48361 6.878479 25.48361 L 7.238342 25.48361 C 8.381393 25.48361 9.309235 24.54774 9.309235 23.39485 L 9.309235 18.64101 Z M 5.160408 45.09354 C 5.160408 46.07562 5.947159 46.86908 6.920837 46.86908 L 7.047867 46.86908 C 8.021568 46.86908 8.808296 46.07565 8.808296 45.09357 L 8.808296 30.57912 C 8.808296 29.59703 8.021561 28.80357 7.047859 28.80357 L 6.920837 28.80357 C 5.947159 28.80357 5.1604 29.59703 5.1604 30.57912 L 5.160408 45.09354 Z M 5.252113 85.05331 C 5.252113 85.89308 5.925964 86.57272 6.75853 86.57272 C 7.591125 86.57272 8.264954 85.89308 8.264954 85.05331 C 8.261421 84.2135 7.587593 83.53395 6.75853 83.53395 C 5.925964 83.53395 5.252113 84.21352 5.252113 85.05331 Z M 8.896744 79.48822 C 8.896744 78.35655 7.981979 77.43819 6.846725 77.43819 C 5.715065 77.43819 4.796738 78.35652 4.796738 79.48819 C 4.796737 80.61987 5.715065 81.53819 6.846725 81.53819 C 7.978363 81.53819 8.896744 80.6199 8.896744 79.48822 Z" fill-rule="evenodd" fill="#C6B463" fill-opacity="1" stroke="#000000" stroke-opacity="1" stroke-width="0.3527778" stroke-linecap="butt" stroke-linejoin="miter"/>
<path id="path_c4c088101a259f0742fe53a71930c2ec" d="M 117.4661 162.8539 C 117.4661 163.5367 118.0208 164.0914 118.7036 164.0914 C 119.1165 164.0759 119.3348 164.0681 119.3585 164.0681 C 119.3942 164.0681 119.4289 164.0717 119.4625 164.0786 L 119.5035 164.0914 L 119.5594 164.1087 C 119.7137 164.174 119.8298 164.3124 119.8643 164.4803 L 119.8739 164.5935 L 119.868 173.0599 L 119.868 173.0602 L 119.8748 173.1268 L 119.8679 173.1944 L 119.8643 173.2308 C 119.823 173.4323 119.664 173.5913 119.4624 173.6326 L 119.4524 173.6336 L 119.3585 173.6431 L 119.2645 173.6336 L 116.7305 173.6335 C 115.5988 173.6335 114.6797 174.5528 114.6797 175.6845 L 114.6797 177.0213 L 114.6797 177.0215 L 114.6887 177.1103 L 114.6797 177.1992 L 114.6782 177.2142 C 114.6369 177.4158 114.4779 177.5747 114.2764 177.616 L 114.1724 177.6265 L 113.5269 177.6266 L 113.0399 177.6265 L 110.5941 177.6265 L 110.4902 177.616 C 110.2887 177.5747 110.1297 177.4158 110.0884 177.2142 L 110.0784 177.1151 L 110.0784 177.1055 L 110.0774 160.5488 L 110.0823 160.5488 L 110.0824 153.6806 L 110.0824 91.25977 L 110.0824 90.37688 L 110.0824 27.07345 L 110.0823 20.20528 L 110.0774 20.20528 L 110.0785 3.648514 L 110.0785 3.638901 L 110.0885 3.539753 C 110.1298 3.338188 110.2887 3.179253 110.4903 3.137951 L 110.5942 3.127457 L 113.0399 3.12743 L 113.5269 3.127419 L 114.1724 3.12743 L 114.2765 3.137955 C 114.478 3.179256 114.637 3.338181 114.6783 3.539745 L 114.6798 3.554852 L 114.6887 3.6437 L 114.6798 3.732567 L 114.6798 3.732727 L 114.6798 5.069534 C 114.6798 6.201187 115.5989 7.120471 116.7306 7.120472 L 119.2646 7.120438 L 119.3586 7.11095 L 119.4524 7.12043 L 119.4625 7.121464 C 119.664 7.162735 119.823 7.321701 119.8643 7.523232 L 119.868 7.55962 L 119.8748 7.627197 L 119.8681 7.693863 L 119.8681 7.694164 L 119.8739 16.16049 L 119.8643 16.27364 C 119.8299 16.44159 119.7138 16.58001 119.5594 16.64536 L 119.5036 16.66264 L 119.4625 16.67546 C 119.4289 16.68235 119.3943 16.68597 119.3586 16.68597 C 119.3348 16.68597 119.1165 16.67821 118.7037 16.66264 C 118.0208 16.66264 117.4662 17.21731 117.4662 17.90012 L 117.4662 19.73962 L 117.4602 19.73962 L 117.4602 22.99696 L 117.4602 28.12576 L 117.4601 76.266 L 117.4601 76.92009 L 117.4609 76.93313 L 117.4738 77.11457 L 117.4803 77.15416 L 117.489 77.19949 L 117.5132 77.31079 L 117.5201 77.33645 L 117.5433 77.40606 L 117.5837 77.51534 L 117.6217 77.59454 L 117.6743 77.69272 L 117.7227 77.76781 L 117.7586 77.81746 L 117.9052 77.98953 L 117.9192 78.00468 L 117.9541 78.0378 L 118.1491 78.19408 L 118.2883 78.27928 L 118.2974 78.2849 L 118.2995 78.28584 L 118.4581 78.35753 L 118.5117 78.37662 L 118.6292 78.4135 L 118.6931 78.42944 L 118.816 78.45221 C 118.9397 78.45213 119.0424 78.45442 119.1241 78.45908 C 119.1417 78.46011 119.1495 78.46695 119.1664 78.47221 L 119.221 78.48918 C 119.3445 78.54147 119.4435 78.64044 119.4958 78.76399 L 119.5243 78.85588 L 119.5259 78.86084 C 119.5328 78.89442 119.5364 78.92923 119.5364 78.96483 C 119.5364 79.00043 119.5328 79.03519 119.5259 79.06877 L 119.5243 79.07385 L 119.5243 85.05536 L 119.5259 85.06041 C 119.5328 85.09399 119.5363 85.12874 119.5363 85.16434 C 119.5363 85.19994 119.5328 85.23476 119.5259 85.26834 L 119.5243 85.27335 L 119.4957 85.36519 C 119.4435 85.48875 119.3445 85.58766 119.221 85.64001 L 119.1339 85.66708 L 119.1241 85.67012 C 119.0905 85.677 119.0558 85.68063 119.0201 85.68063 L 117.8496 85.66701 C 117.8078 85.66582 117.7857 85.66998 117.745 85.67975 C 117.7083 85.6886 117.6898 85.69646 117.6561 85.71361 C 117.6303 85.72682 117.6314 85.73312 117.5965 85.75566 C 117.4544 85.8474 117.4951 85.91277 117.4645 86.04424 L 117.4602 86.10724 L 117.4602 86.28966 L 117.4601 86.82222 L 117.4601 87.44678 L 117.4601 90.37346 L 117.4601 90.38051 L 117.4601 91.25972 L 117.4602 93.30722 L 117.4602 93.93173 L 117.4602 94.46431 L 117.4602 94.64671 L 117.4645 94.70973 C 117.4951 94.8412 117.4544 94.90654 117.5966 94.99828 C 117.6314 95.02081 117.6303 95.02718 117.6561 95.04036 C 117.6898 95.05754 117.7083 95.06537 117.7451 95.07422 C 117.7858 95.084 117.8078 95.08818 117.8497 95.08699 L 119.0202 95.07344 C 119.0558 95.07344 119.0905 95.07706 119.1241 95.08391 L 119.1339 95.08696 L 119.221 95.11401 C 119.3445 95.16637 119.4435 95.26529 119.4958 95.38885 L 119.5244 95.48071 L 119.5259 95.4857 C 119.5328 95.51929 119.5364 95.55408 119.5364 95.58968 C 119.5364 95.62527 119.5328 95.66005 119.5259 95.69363 L 119.5244 95.6987 L 119.5244 101.6802 L 119.5259 101.6852 C 119.5328 101.7188 119.5364 101.7536 119.5364 101.7892 C 119.5364 101.8248 119.5328 101.8596 119.5259 101.8932 L 119.5244 101.8982 L 119.4958 101.9901 C 119.4435 102.1136 119.3445 102.2125 119.221 102.2649 L 119.1664 102.2818 C 119.1495 102.2871 119.1417 102.2939 119.1241 102.295 C 119.0424 102.2996 118.9398 102.3019 118.8161 102.3019 L 118.6931 102.3246 L 118.6293 102.3405 L 118.5118 102.3774 L 118.4582 102.3965 L 118.2996 102.4682 L 118.2974 102.4692 L 118.2883 102.4748 L 118.1492 102.56 L 117.9541 102.7163 L 117.9192 102.7493 L 117.9052 102.7645 L 117.7586 102.9365 L 117.7227 102.9861 L 117.6744 103.0613 L 117.6217 103.1594 L 117.5837 103.2386 L 117.5433 103.3479 L 117.5201 103.4175 L 117.5132 103.4432 L 117.4891 103.5545 L 117.4803 103.5998 L 117.4739 103.6394 L 117.4609 103.8209 L 117.4601 103.8339 L 117.4601 104.488 L 117.4602 152.6282 L 117.4602 157.757 L 117.4601 161.0144 L 117.4661 161.0144 L 117.4661 162.8539 Z M 113.5138 78.47856 C 113.6172 78.47856 113.719 78.46877 113.8171 78.45 L 113.8209 78.44904 L 114.0848 78.37251 L 114.168 78.33414 L 114.3312 78.25191 L 114.4193 78.19284 L 114.5519 78.09225 L 114.6325 78.01743 L 114.7428 77.89706 L 114.8106 77.81056 L 114.9 77.66872 L 114.9513 77.57625 L 115.0204 77.40347 L 115.051 77.3183 L 115.1056 77.04083 L 115.1137 76.87886 L 115.1056 76.71622 C 115.0749 76.41289 114.9601 76.13485 114.7848 75.90584 L 114.5903 75.69405 L 114.4912 75.61903 L 114.3606 75.52013 L 114.1012 75.38943 C 113.9196 75.31783 113.7213 75.27854 113.5138 75.27854 C 112.6835 75.27854 112.0038 75.90744 111.922 76.71626 L 111.9138 76.87892 L 111.9219 77.0407 C 112.0037 77.84957 112.6835 78.47856 113.5138 78.47856 Z M 113.535 68.07186 C 112.9598 68.07186 112.4335 68.27531 112.023 68.61423 L 111.995 68.64001 L 111.8574 68.76528 C 111.6223 69.00083 111.4367 69.28529 111.3158 69.60227 L 111.2513 69.7961 L 111.2121 69.96037 L 111.2033 69.99694 L 111.1726 70.20385 L 111.1621 70.40379 L 111.1599 70.44878 L 111.1618 70.49137 L 111.1706 70.66929 L 111.2237 70.98815 L 111.2311 71.02101 L 111.237 71.0437 L 111.3312 71.33049 L 111.3541 71.38531 L 111.4916 71.65742 L 111.5174 71.69842 L 111.6993 71.95528 L 111.7013 71.95795 C 112.1364 72.48569 112.7957 72.82187 113.5349 72.82187 L 113.8593 72.7974 L 113.9437 72.78379 L 114.2007 72.72472 L 114.2562 72.7097 L 114.5428 72.59695 L 114.6087 72.56316 L 114.8215 72.44092 L 114.8949 72.39337 L 114.9818 72.32845 L 115.0805 72.24919 L 115.1597 72.17718 L 115.2446 72.09367 L 115.2571 72.08056 L 115.3073 72.0253 L 115.4894 71.79308 L 115.5225 71.74664 L 115.5255 71.74174 L 115.674 71.47395 L 115.6836 71.45506 L 115.7053 71.41019 L 115.7906 71.17362 L 115.8299 71.05719 L 115.8968 70.69501 L 115.8977 70.6899 L 115.9065 70.5201 L 115.9099 70.4494 L 115.8976 70.20717 C 115.8217 69.45627 115.3989 68.80994 114.792 68.43066 L 114.7757 68.42151 L 114.6045 68.32515 C 114.2832 68.16301 113.92 68.07186 113.535 68.07186 Z M 111.3908 91.25975 L 111.3909 93.41225 C 111.3909 93.48065 111.3946 93.54796 111.4011 93.61449 L 111.43 93.80611 L 111.4431 93.85912 L 111.4764 93.99049 L 111.4989 94.05556 L 111.5396 94.1676 L 111.5703 94.23517 L 111.6185 94.33656 L 111.6563 94.40349 L 111.7122 94.49654 L 111.7565 94.56068 L 111.8201 94.64626 L 111.8705 94.70683 L 111.9409 94.78514 L 111.9968 94.84145 L 112.0742 94.91249 L 112.1348 94.96338 L 112.2188 95.02675 L 112.2837 95.07204 L 112.3745 95.12766 L 112.4426 95.16641 L 112.54 95.21368 L 112.6104 95.24561 L 112.7157 95.28455 L 112.7864 95.30908 L 112.902 95.3391 L 112.9698 95.3555 L 113.1036 95.37625 L 113.1594 95.38419 L 113.3554 95.39426 L 113.5492 95.39426 L 113.5529 95.39407 L 113.7735 95.38004 L 113.8408 95.37012 L 113.9986 95.33977 L 114.0633 95.32394 L 114.2641 95.25826 L 114.2685 95.25697 L 114.2724 95.25525 L 114.4625 95.1656 L 114.5193 95.13335 L 114.6508 95.05074 L 114.7043 95.01355 L 114.8668 94.88174 L 114.869 94.87981 L 114.9791 94.76622 L 115.0336 94.70988 C 115.0851 94.64996 115.1331 94.58696 115.1773 94.52107 L 115.3051 94.29701 L 115.3364 94.22818 L 115.4073 94.04718 L 115.4312 93.97408 L 115.4907 93.71431 C 115.5056 93.61581 115.5134 93.5148 115.5134 93.41228 L 115.5134 91.25977 L 115.5134 90.38411 L 115.5134 90.36992 L 115.5134 87.3418 C 115.5134 87.23924 115.5055 87.13818 115.4907 87.03969 L 115.4312 86.77992 L 115.4073 86.70689 L 115.3364 86.52582 L 115.3051 86.45702 L 115.1773 86.23296 C 115.1331 86.16707 115.085 86.10403 115.0336 86.04411 L 114.9791 85.98781 L 114.869 85.87419 L 114.8667 85.87228 L 114.7043 85.74048 L 114.6508 85.70329 L 114.5192 85.62065 L 114.4624 85.58839 L 114.2723 85.49878 L 114.2685 85.49706 L 114.264 85.49574 L 114.0633 85.43005 L 113.9985 85.41423 L 113.8408 85.38388 L 113.7735 85.37399 L 113.5529 85.35995 L 113.5492 85.35977 L 113.3554 85.35977 L 113.1594 85.36981 L 113.1035 85.37778 L 112.9698 85.39853 L 112.902 85.41493 L 112.7864 85.44495 L 112.7157 85.46945 L 112.6104 85.50839 L 112.54 85.54031 L 112.4425 85.5876 L 112.3745 85.62637 L 112.2836 85.68199 L 112.2188 85.72725 L 112.1348 85.79062 L 112.0742 85.84154 L 111.9968 85.91258 L 111.9408 85.96886 L 111.8704 86.04716 L 111.82 86.10774 L 111.7565 86.19331 L 111.7122 86.25746 L 111.6562 86.35054 L 111.6185 86.41743 L 111.5703 86.51883 L 111.5396 86.5864 L 111.4989 86.69844 L 111.4764 86.7635 L 111.443 86.89491 L 111.43 86.94792 L 111.4011 87.13951 C 111.3946 87.20604 111.3908 87.27339 111.3908 87.34183 L 111.3908 90.36986 L 111.3908 90.38405 L 111.3908 91.25975 Z M 113.535 112.6822 C 113.92 112.6822 114.2831 112.591 114.6045 112.4288 L 114.7757 112.3325 L 114.792 112.3233 C 115.3989 111.9441 115.8217 111.2977 115.8977 110.5468 L 115.91 110.3046 L 115.9066 110.2339 L 115.8977 110.0641 L 115.8969 110.059 L 115.8299 109.6968 L 115.7906 109.5804 L 115.7053 109.3438 L 115.6836 109.299 L 115.674 109.28 L 115.5256 109.0123 L 115.5225 109.0074 L 115.4894 108.9609 L 115.3074 108.7287 L 115.2571 108.6734 L 115.2446 108.6603 L 115.1597 108.5769 L 115.0805 108.5048 L 114.9818 108.4255 L 114.895 108.3606 L 114.8215 108.3131 L 114.6087 108.1909 L 114.5428 108.1571 L 114.2562 108.0443 L 114.2007 108.0293 L 113.9437 107.9702 L 113.8594 107.9566 L 113.5349 107.9321 C 112.7958 107.9321 112.1364 108.2683 111.7013 108.796 L 111.6993 108.7987 L 111.5174 109.0556 L 111.4916 109.0966 L 111.3541 109.3687 L 111.3312 109.4235 L 111.237 109.7103 L 111.2311 109.733 L 111.2238 109.7659 L 111.1707 110.0847 L 111.1618 110.2626 L 111.1599 110.3052 L 111.1621 110.3502 L 111.1727 110.5502 L 111.2033 110.7571 L 111.2121 110.7936 L 111.2513 110.9579 L 111.3158 111.1517 C 111.4367 111.4687 111.6223 111.7531 111.8574 111.9887 L 111.995 112.114 L 112.023 112.1398 C 112.4335 112.4787 112.9598 112.6821 113.535 112.6822 Z M 113.5138 102.2755 C 112.6835 102.2755 112.0038 102.9045 111.922 103.7133 L 111.9138 103.8751 L 111.922 104.0378 C 112.0038 104.8466 112.6836 105.4754 113.5139 105.4755 C 113.7214 105.4755 113.9196 105.4362 114.1012 105.3646 L 114.3607 105.2339 L 114.4913 105.135 L 114.5904 105.06 L 114.7848 104.8482 C 114.9601 104.6191 115.0749 104.3411 115.1056 104.0378 L 115.1137 103.8752 L 115.1057 103.7132 L 115.0511 103.4357 L 115.0204 103.3505 L 114.9514 103.1778 L 114.9 103.0853 L 114.8106 102.9435 L 114.7428 102.857 L 114.6325 102.7366 L 114.5519 102.6618 L 114.4193 102.5612 L 114.3313 102.5021 L 114.168 102.4199 L 114.0849 102.3815 L 113.8209 102.305 L 113.8172 102.304 C 113.7191 102.2853 113.6173 102.2755 113.5138 102.2755 Z" fill-rule="evenodd" fill="#C6B463" fill-opacity="1" stroke="#000000" stroke-opacity="1" stroke-width="0.3527778" stroke-linecap="butt" stroke-linejoin="miter"/>
<path id="path_c0a8f2569752bb5e7832c26ae190351f" d="M 3.173088 143.8371 L 3.072525 143.8472 C 2.877335 143.8873 2.723396 144.0412 2.683395 144.2363 L 2.673264 144.3367 L 2.673233 144.3371 L 2.673264 144.3373 L 2.673248 155.1162 L 2.673264 165.895 L 2.673241 165.8953 L 2.673264 165.8956 L 2.683395 165.996 C 2.723396 166.1912 2.87735 166.3451 3.07254 166.3852 L 3.173103 166.3953 L 3.173225 166.3953 L 3.173355 166.3953 L 9.431702 166.3954 L 9.661308 166.384 C 9.736626 166.3764 9.810562 166.3652 9.882973 166.3506 L 10.00288 166.32 L 10.1329 166.2827 L 10.21938 166.2511 L 10.3748 166.1852 L 10.4435 166.152 L 10.60469 166.0593 L 10.65973 166.0256 L 10.83849 165.8912 L 10.95306 165.7854 L 10.99905 165.7409 L 11.12246 165.6025 L 11.13225 165.5903 L 11.25008 165.4292 C 11.32665 165.3131 11.39229 165.1893 11.44576 165.0592 L 11.5136 164.8682 L 11.5184 164.8526 L 11.56135 164.6803 L 11.57741 164.5912 L 11.59669 164.4606 L 11.6107 164.2221 L 11.61101 164.2158 L 11.61102 156.4162 L 11.61098 146.0166 L 11.61064 146.0095 L 11.59669 145.7719 L 11.57735 145.641 L 11.56135 145.5522 L 11.51836 145.3796 L 11.51362 145.3643 L 11.44574 145.1732 C 11.39227 145.0431 11.32664 144.9192 11.25006 144.8032 L 11.13218 144.642 L 11.12247 144.6299 L 10.99902 144.4914 L 10.95323 144.4471 L 10.8384 144.3411 L 10.65965 144.2067 L 10.60498 144.1732 L 10.44348 144.0803 L 10.37478 144.0471 L 10.21947 143.9813 L 10.13271 143.9496 L 10.00324 143.9124 L 9.882957 143.8818 C 9.810547 143.8671 9.73661 143.8559 9.661293 143.8484 L 9.431686 143.837 L 3.17334 143.8371 L 3.17321 143.8371 L 3.173088 143.8371 Z" fill-rule="evenodd" fill="#C6B463" fill-opacity="1" stroke="#000000" stroke-opacity="1" stroke-width="0.3527778" stroke-linecap="butt" stroke-linejoin="miter"/>
</defs>
<g>
<use xlink:href="#path_9025c09204a620d5784d303f4bc75134"/>
</g>
<g>
<use xlink:href="#path_3e2ee436337627d0effe29c65c1f1909"/>
</g>
<g>
<use xlink:href="#path_c4c088101a259f0742fe53a71930c2ec"/>
</g>
<g>
<use xlink:href="#path_c0a8f2569752bb5e7832c26ae190351f"/>
</g>
</svg>