<?xml version="1.0" encoding="utf-8"?>
<!DOCTYPE svg PUBLIC "-//W3C//DTD SVG 1.1//EN" "http://www.w3.org/Graphics/SVG/1.1/DTD/svg11.dtd">
<!-- exported from Silhouette Studio® Business Edition V4.5.180ssbe -->
<svg version="1.1" xmlns="http://www.w3.org/2000/svg" xmlns:xlink="http://www.w3.org/1999/xlink" width="310mm" height="320mm" viewBox="0 0 310 320">
<defs>
<path id="path_7b17719fa68b8f7bf976c63601bdbea8" d="M 146.0614 21.18884 C 134.1047 21.36336 122.1688 22.25268 110.3183 23.85196 C 99.8586 25.26354 89.21188 23.8181 79.50714 19.66892 C 68.31745 15.11581 56.39934 12.6147 44.32328 12.28528 L 44.28328 12.28344 C 42.90345 12.22037 41.52236 12.18882 40.14109 12.18881 L 19.06143 12.1888 C 17.60275 12.1888 16.20377 12.76826 15.17233 13.79971 C 14.14088 14.83116 13.56142 16.23011 13.56143 17.6888 L 13.56142 65.68874 C 13.56144 67.14743 14.14091 68.54639 15.17236 69.57784 C 16.2038 70.60929 17.60275 71.18874 19.06143 71.18874 L 40.1411 71.18875 C 41.52237 71.18874 42.90346 71.1572 44.28329 71.09413 L 44.32329 71.09229 C 56.39936 70.76287 68.31746 68.26176 79.50715 63.70869 C 89.21188 59.55951 99.85861 58.11406 110.3183 59.52564 C 122.1688 61.12496 134.1047 62.01424 146.0614 62.18879 L 148.9114 62.18879 C 149.8396 62.18879 150.7299 61.82005 151.3863 61.16367 C 152.0426 60.5073 152.4114 59.61706 152.4114 58.6888 L 152.4114 24.68884 C 152.4114 23.76058 152.0426 22.87034 151.3863 22.21396 C 150.7299 21.55759 149.8396 21.18884 148.9114 21.18884 L 146.0614 21.18884 Z" fill-rule="evenodd" fill="none" fill-opacity="1" stroke="#000000" stroke-opacity="1" stroke-width="0" stroke-linecap="round" stroke-linejoin="round"/>
<path id="path_e133eaf9d8b4ae08c9edc9d59905f0ce" d="M 151.9113 58.68625 C 151.9113 58.85541 151.8215 61.16553 149.4994 61.63047 C 148.5394 61.82268 139.8438 61.59505 133.7691 61.2564 C 114.0589 60.15759 110.3971 58.35291 101.4647 58.50926 C 87.40047 58.75544 80.59306 63.22055 71.377 66.09331 C 57.17531 70.52015 45.66159 70.68872 38.22376 70.68872 L 19.06459 70.68872 C 16.1715 70.68872 14.06144 68.32713 14.06142 65.68561 L 14.06142 17.69192 C 14.06141 15.1133 16.10857 12.68879 19.06455 12.68879 L 40.14032 12.68879 C 54.66636 12.68879 65.26338 15.29637 72.44901 17.62504 C 80.5434 20.24822 87.91446 24.74708 101.9602 24.87492 C 110.7674 24.95509 114.2869 23.17086 134.3275 22.09113 C 139.6981 21.80178 148.5861 21.51395 149.6425 21.77944 C 150.8359 22.07934 151.9113 23.182 151.9113 24.69139 L 151.9113 58.68625 Z" fill-rule="evenodd" fill="none" fill-opacity="1" stroke="#FF0000" stroke-opacity="1" stroke-width="0" stroke-linecap="round" stroke-linejoin="round"/>
<path id="path_df9fc844ad01c84594b08cab489c65c0" d="M 15.31141 65.43886 C 15.31141 67.09421 16.65605 68.43886 18.3114 68.43886 C 19.96675 68.43886 21.31142 67.0942 21.31142 65.43885 C 21.31142 63.7835 19.96676 62.43886 18.31141 62.43886 C 16.65606 62.43886 15.31141 63.78351 15.31141 65.43886 Z" fill-rule="evenodd" fill="none" fill-opacity="1" stroke="#000000" stroke-opacity="1" stroke-width="0" stroke-linecap="round" stroke-linejoin="round"/>
<path id="path_19a08675e65e8156ceb3e681d265223c" d="M 15.31142 17.93883 C 15.31142 19.59418 16.65607 20.93882 18.31142 20.93882 C 19.96678 20.93882 21.31142 19.59418 21.31142 17.93883 C 21.31142 16.28348 19.96678 14.93883 18.31142 14.93883 C 16.65607 14.93883 15.31142 16.28348 15.31142 17.93883 Z" fill-rule="evenodd" fill="none" fill-opacity="1" stroke="#000000" stroke-opacity="1" stroke-width="0" stroke-linecap="round" stroke-linejoin="round"/>
<path id="path_302608be5624c019c393ce2fa9eea557" d="M 144.5614 30.68885 C 144.5614 32.3442 145.9061 33.68885 147.5614 33.68885 C 149.2168 33.68885 150.5614 32.3442 150.5614 30.68885 C 150.5614 29.0335 149.2168 27.68885 147.5614 27.68885 C 145.9061 27.68885 144.5614 29.0335 144.5614 30.68885 Z" fill-rule="evenodd" fill="none" fill-opacity="1" stroke="#000000" stroke-opacity="1" stroke-width="0" stroke-linecap="round" stroke-linejoin="round"/>
<path id="path_8268b90af24c5911a234d712831e544d" d="M 144.5614 52.68882 C 144.5614 54.34417 145.9061 55.68882 147.5614 55.68882 C 149.2168 55.68882 150.5614 54.34417 150.5614 52.68882 C 150.5614 51.03347 149.2168 49.68883 147.5614 49.68883 C 145.9061 49.68883 144.5614 51.03347 144.5614 52.68882 Z" fill-rule="evenodd" fill="none" fill-opacity="1" stroke="#000000" stroke-opacity="1" stroke-width="0" stroke-linecap="round" stroke-linejoin="round"/>
<path id="path_a19980b791565f69aec9f44e37bb605a" d="M 37.81142 41.68882 C 37.81142 43.34417 39.15607 44.68881 40.81143 44.68881 C 42.46678 44.68881 43.81143 43.34417 43.81143 41.68882 C 43.81143 40.03347 42.46678 38.68882 40.81143 38.68882 C 39.15607 38.68882 37.81142 40.03347 37.81142 41.68882 Z" fill-rule="evenodd" fill="none" fill-opacity="1" stroke="#000000" stroke-opacity="1" stroke-width="0" stroke-linecap="round" stroke-linejoin="round"/>
<path id="path_4fe13a707a95b82c5a5026bdb3f6f15b" d="M 37.81144 17.93881 C 37.81144 19.59416 39.15609 20.93881 40.81144 20.93881 C 42.4668 20.93881 43.81145 19.59417 43.81145 17.93882 C 43.81145 16.28347 42.4668 14.93882 40.81145 14.93882 C 39.15609 14.93882 37.81144 16.28346 37.81144 17.93881 Z" fill-rule="evenodd" fill="none" fill-opacity="1" stroke="#000000" stroke-opacity="1" stroke-width="0" stroke-linecap="round" stroke-linejoin="round"/>
<path id="path_c8c3c2d7982630a896a990701a3fdeb4" d="M 37.81137 65.43889 C 37.81137 67.09424 39.15602 68.43889 40.81138 68.43889 C 42.46673 68.43889 43.81138 67.09424 43.81138 65.43889 C 43.81138 63.78354 42.46673 62.4389 40.81138 62.4389 C 39.15602 62.4389 37.81137 63.78354 37.81137 65.43889 Z" fill-rule="evenodd" fill="none" fill-opacity="1" stroke="#000000" stroke-opacity="1" stroke-width="0" stroke-linecap="round" stroke-linejoin="round"/>
<path id="path_806bdf96bdbfc9184ffd63b5e3d78539" d="M 103.3114 32.68882 C 103.3114 33.65444 104.0958 34.43882 105.0614 34.43882 C 106.027 34.43882 106.8114 33.65444 106.8114 32.68882 C 106.8114 31.7232 106.027 30.93882 105.0614 30.93882 C 104.0958 30.93882 103.3114 31.7232 103.3114 32.68882 Z" fill-rule="evenodd" fill="none" fill-opacity="1" stroke="#000000" stroke-opacity="1" stroke-width="0" stroke-linecap="round" stroke-linejoin="round"/>
<path id="path_72f6844356d46ce7a57313ae2012c0d2" d="M 103.3114 50.6888 C 103.3114 51.65442 104.0958 52.43879 105.0614 52.43879 C 106.027 52.43879 106.8114 51.65442 106.8114 50.6888 C 106.8114 49.72318 106.027 48.93879 105.0614 48.93879 C 104.0958 48.93879 103.3114 49.72318 103.3114 50.6888 Z" fill-rule="evenodd" fill="none" fill-opacity="1" stroke="#000000" stroke-opacity="1" stroke-width="0" stroke-linecap="round" stroke-linejoin="round"/>
</defs>
<g>
<use xlink:href="#path_7b17719fa68b8f7bf976c63601bdbea8"/>
</g>
<g>
<use xlink:href="#path_e133eaf9d8b4ae08c9edc9d59905f0ce"/>
</g>
<g>
<use xlink:href="#path_df9fc844ad01c84594b08cab489c65c0"/>
</g>
<g>
<use xlink:href="#path_19a08675e65e8156ceb3e681d265223c"/>
</g>
<g>
<use xlink:href="#path_302608be5624c019c393ce2fa9eea557"/>
</g>
<g>
<use xlink:href="#path_8268b90af24c5911a234d712831e544d"/>
</g>
<g>
<use xlink:href="#path_a19980b791565f69aec9f44e37bb605a"/>
</g>
<g>
<use xlink:href="#path_4fe13a707a95b82c5a5026bdb3f6f15b"/>
</g>
<g>
<use xlink:href="#path_c8c3c2d7982630a896a990701a3fdeb4"/>
</g>
<g>
<use xlink:href="#path_806bdf96bdbfc9184ffd63b5e3d78539"/>
</g>
<g>
<use xlink:href="#path_72f6844356d46ce7a57313ae2012c0d2"/>
</g>
</svg>